<?xml version="1.0" encoding="UTF-8" standalone="no"?>
<!-- Created with Inkscape (http://www.inkscape.org/) -->

<svg
   id="svg2"
   sodipodi:docname="car-cutout-grouped.svg"
   viewBox="0 0 1668 1160"
   version="1.1"
   inkscape:version="1.2.2 (b0a8486541, 2022-12-01)"
   xmlns:inkscape="http://www.inkscape.org/namespaces/inkscape"
   xmlns:sodipodi="http://sodipodi.sourceforge.net/DTD/sodipodi-0.dtd"
   xmlns="http://www.w3.org/2000/svg"
   xmlns:svg="http://www.w3.org/2000/svg"
   xmlns:rdf="http://www.w3.org/1999/02/22-rdf-syntax-ns#"
   xmlns:cc="http://creativecommons.org/ns#"
   xmlns:dc="http://purl.org/dc/elements/1.1/">
  <g
     id="on-tampon"
     transform="translate(268.21477,-256.07199)">
    <rect
       id="sol-on-sis"
       style="fill:none;stroke:#000000;stroke-width:2"
       rx="7.7417998"
       ry="6.2844"
       height="35.189999"
       width="16.891001"
       y="985.57001"
       x="-216.50999" />
    <rect
       id="sag-on-sis"
       style="fill:none;stroke:#000000;stroke-width:2"
       rx="7.7417998"
       ry="6.2844"
       height="35.189999"
       width="16.891001"
       y="648.31"
       x="-216.50999" />
    <path
       id="path4381"
       sodipodi:nodetypes="cssc"
       style="fill:none;stroke:#000000;stroke-width:5"
       inkscape:connector-curvature="0"
       d="m -191.18,624.38 c 0,0 -35.19,-1.41 -35.19,21.11 v 371.61 c 0,22.5 36.6,25.3 36.6,25.3" />
    <path
       id="path4377"
       sodipodi:nodetypes="csccsc"
       style="fill:none;stroke:#000000;stroke-width:5"
       inkscape:connector-curvature="0"
       d="m -157.39,624.38 c 0,0 -4.23,-12.67 -18.3,-12.67 -14.08,0 -14.08,8.45 -14.08,8.45 v 423.64 c 0,0 1.41,9.9 14.08,9.9 12.66,0 18.3,-9.9 18.3,-9.9" />
    <path
       id="path4363"
       style="fill:#ffffc0;stroke-width:0"
       inkscape:connector-curvature="0"
       d="m -153.88,675.78 v -27.45 h 22.53 22.52 v 27.45 27.45 h -22.52 -22.53 z" />
    <path
       id="path4361"
       style="fill:#ffffc0;stroke-width:0"
       inkscape:connector-curvature="0"
       d="m -153.88,992.49 v -26.04 h 22.53 22.52 v 26.04 26.01 h -22.52 -22.53 z" />
    <path
       id="path4281-8-0"
       style="fill:none;stroke:#000000;stroke-width:2"
       inkscape:connector-curvature="0"
       d="M -126.57,704.93 V 965.34" />
    <path
       id="path4281-8"
       style="fill:none;stroke:#000000;stroke-width:2"
       inkscape:connector-curvature="0"
       d="m -137.24,705.39 v 260.4" />
    <path
       id="path4281-1"
       style="fill:none;stroke:#000000;stroke-width:2"
       inkscape:connector-curvature="0"
       d="M -147.1,703.82 V 964.23" />
    <path
       id="path4247-0"
       style="fill:none;stroke:#000000;stroke-width:2.2"
       inkscape:connector-curvature="0"
       d="m -153.88,964.87 h 49.27" />
    <path
       id="path4247-1"
       style="fill:none;stroke:#000000;stroke-width:2.2"
       inkscape:connector-curvature="0"
       d="m -156.69,705.06 h 49.26" />
    <path
       id="path4247-2"
       style="fill:none;stroke:#000000;stroke-width:2.2"
       inkscape:connector-curvature="0"
       d="m -155.14,1020.4 h 49.27" />
    <path
       id="path4247"
       style="fill:none;stroke:#000000;stroke-width:2.2"
       inkscape:connector-curvature="0"
       d="m -155.99,646.16 h 49.27" />
    <path
       id="path4245"
       sodipodi:nodetypes="ccsccsccccc"
       style="fill:none;stroke:#000000;stroke-width:5"
       inkscape:connector-curvature="0"
       d="m -106.79,740.92 1.41,-91.5 c 0,0 5.626,-23.93 -25.34,-25.33 -30.97,-1.41 -26.75,2.81 -26.75,2.81 l 1.41,415.2 h 28.15 c 28.156,0 22.53,-22.5 22.53,-22.5 v -95.7 c -12.68,0 -11.27,-9.61 -11.27,-16.89 v -149.2 c 0.45,-18.89 9.86,-16.89 9.86,-16.89 z" />
    <g
       id="on-tampon-civata"
       transform="translate(-13.78,15.524)">
      <circle
         id="path3857"
         style="fill:#3c3c3c;stroke:#000000;stroke-width:2"
         transform="translate(-79.458,449.8)"
         cx="-81.640511"
         cy="188.75949"
         r="4.222785" />
      <circle
         id="path3857-2"
         style="fill:#3c3c3c;stroke:#000000;stroke-width:2"
         transform="translate(-79.458,569.92)"
         cx="-81.640511"
         cy="188.75949"
         r="4.222785" />
      <circle
         id="path3857-3"
         style="fill:#3c3c3c;stroke:#000000;stroke-width:2"
         transform="translate(-79.458,690.03)"
         cx="-81.640511"
         cy="188.75949"
         r="4.222785" />
      <circle
         id="path3857-7"
         style="fill:#3c3c3c;stroke:#000000;stroke-width:2"
         transform="translate(-79.458,810.15)"
         cx="-81.640511"
         cy="188.75949"
         r="4.222785" />
    </g>
  </g>
  <defs
     id="defs582" />
  <sodipodi:namedview
     id="base"
     fit-margin-left="0"
     inkscape:zoom="1"
     borderopacity="1.0"
     inkscape:current-layer="sag"
     inkscape:cx="1125"
     inkscape:cy="195"
     inkscape:window-maximized="1"
     showgrid="true"
     fit-margin-right="0"
     inkscape:snap-global="false"
     showguides="true"
     bordercolor="#666666"
     inkscape:window-x="0"
     inkscape:guide-bbox="true"
     inkscape:window-y="0"
     fit-margin-bottom="0"
     inkscape:window-width="1920"
     inkscape:pageopacity="0.0"
     inkscape:pageshadow="2"
     pagecolor="#ffffff"
     inkscape:document-units="px"
     inkscape:window-height="1008"
     fit-margin-top="0"
     inkscape:showpageshadow="2"
     inkscape:pagecheckerboard="0"
     inkscape:deskcolor="#d1d1d1">
    <inkscape:grid
       type="xygrid"
       id="grid1789" />
  </sodipodi:namedview>
  <g
     id="layer2"
     inkscape:label="auto"
     inkscape:groupmode="layer"
     transform="translate(254 -254)">
    <g
       id="sol"
       transform="translate(-13.78 3.524)">
      <path
         style="fill:none"
         d="m 625.31169,1100.852 c -8.6024,68.9474 -3.512,94.4802 2.67536,152.8825 l 168.09141,0.1026 c 23.61901,-69.9665 72.19444,-82.492 82.83333,-91.0295 20.10057,-15.1551 0.16046,-46.1779 -10.90032,-63.5451 -26.8824,-40.1562 -58.21323,-69.2523 -88.89747,-99.95607 -45.48771,-3.12235 -90.20297,-3.97786 -134.57387,-3.82276 l -1.37959,10.32123 c 57.78607,-0.1458 117.9503,-0.5232 127.44449,4.0358 38.04854,22.9817 52.6801,56.1599 75.68572,89.6688 l 8.73718,45.6232 c 5.72234,7.58 0.039,12.9885 0.36488,14.054 l -37.13596,-0.3812 c -2.51065,-4.9798 -1.74772,-10.0451 -0.002,-13.984 l 44.5764,0.8962 -10.07739,-44.249 -213.61944,1.4212 6.36485,-106.8058 -11.16002,-0.77979 z"
         id="sol-arka-kapi"
         sodipodi:nodetypes="cccccccccccccccccccc" />
      <path
         d="m 339.96125,1102.7636 c -18.86282,51.7083 -19.75543,116.9933 -3.91175,150.3463 l 287.68345,1.0613 c -2.86466,-96.7703 -1.86002,-56.7641 1.05847,-153.1931 2.14011,-12.7545 6.65281,-96.4571 7.72006,-106.38186 0.22927,-2.13206 -93.05979,4.7809 -94.52925,4.75197 -14.01173,-0.2759 -46.94553,6.35669 -49.71518,11.49799 -0.99352,1.8443 -143.71341,80.5393 -143.5324,83.0107 0.0838,1.1444 3.99286,-12.8957 0.18304,0.089 -2.64785,9.0246 -8.01542,26.8107 16.50283,8.4072 27.72225,-20.8083 110.33046,-71.4387 144.19194,-85.0878 25.35006,-10.2182 55.26428,-9.8632 58.08138,-10.0032 32.60594,-1.6203 58.01395,-7.35653 54.88979,-0.4332 -7.24928,16.0649 -9.61737,94.2733 -16.51265,94.9332 -1.92708,0.1845 -6.62258,44.8813 -3.93456,43.6696 2.82358,-1.2728 3.90616,14.0426 -0.43926,14.0127 -0.72452,0 -36.25733,0.1882 -37.12488,0.1094 -1.93675,-0.1761 -1.79747,-14.2247 -0.58619,-14.434 2.71849,-0.4696 45.41226,0.3029 41.95671,-0.3876 -4.61842,-0.923 13.60936,-43.1974 7.11745,-43.3727 -81.99952,-2.2144 -242.43156,-1.8774 -267.97299,-1.3195 z"
         id="sol-on-kapi"
         sodipodi:nodetypes="ccccsssssssssssssssscc"
         style="fill:none" />
      <path
         id="sol-arka-cam"
         style="stroke:#000000;stroke-width:5;fill:#f0ffeb"
         d="m898.7 752.84-4.29 94.32h207.19c-11.3-20.75-46.6-74.9-72.9-88.57-14.3-10-82.86-4.33-130-5.75z"
         sodipodi:nodetypes="ccccc"
         transform="translate(-254 254)"
         inkscape:connector-curvature="0" />
      <path
         style="fill:none"
         d="m 897.95757,1102.3232 117.95523,1.7809 -90.476,-54.4883 -110.76983,-34.15 -27.94737,-12.2301 7.2261,-1.3087 82.8516,16.4544 149.1072,70.3517 105.9913,29.9803 c 7.3983,6.5655 15.0136,13.1017 15.6455,20.5785 l -3.5075,14.8287 1.2554,42.7606 11.0053,36.1908 -12.2074,24.9764 -11.9919,-0.18 -14.7274,33.4265 -113.7744,0.8922 -10.424,-38.044 23.7246,-0.7554 c -3.8468,-23.2189 -19.73322,-42.1139 -35.39038,-59.3894 -26.52195,-19.6963 -40.46286,-22.3755 -62.39782,-26.9142 l -47.24787,4.8463 18.92437,-23.2749 -15.62292,-39.7813 c -26.27975,-35.8687 -55.9816,-75.5235 -93.75738,-105.6799 l 6.5267,-1.154 9.7044,-0.012 17.47482,15.4414 6.69778,7.6699 75.4672,75.9702 z"
         id="sol-arka-camurluk"
         sodipodi:nodetypes="ccccccccccccccccccccccccccccccc" />
      <path
         style="opacity:0.81;fill:none"
         d="m 101.91143,1253.0058 21.09144,1.459 -9.74413,37.2006 -65.397043,0.8449 -16.720092,-39.5145 -0.707484,-1.4955 c -2.743475,-0.024 -6.867181,-0.051 -11.536768,-1.3765 -2.052026,-0.6211 -3.991901,-1.4017 -5.757693,-2.4299 -1.347191,-1.1263 -2.733674,-2.1978 -3.3895324,-4.2869 -1.4159977,-3.4944 1.1044684,-8.0208 1.3499174,-12.6767 0.851241,-12.3203 -0.02892,-26.1581 5.010207,-30.2782 1.640351,-1.4797 4.297616,-2.2948 6.793601,-2.5489 16.762374,-0.2031 33.517902,0.6015 50.466951,1.5541 l 17.512202,-49.1525 -36.470617,-2.729 c 23.316378,-11.823 63.292751,-24.9931 118.467621,-29.0267 24.63797,-1.8011 54.36174,-4.6912 88.86613,-7.6926 25.63051,-2.2296 51.6579,-5.1992 79.07116,-14.3159 -22.71713,62.609 -16.6284,108.2155 -9.67874,156.6213 l -9.91703,-0.054 c -12.74212,-46.3236 -46.80645,-87.5161 -111.36229,-87.9147 -53.5613,0.1402 -92.76776,31.2822 -107.94781,87.8088 z"
         id="sol-on-camurluk"
         sodipodi:nodetypes="cccccccccccccccsscccccc" />
      <path
         style="fill:none"
         d="m 309.43782,1291.6729 320.27292,-1.5148 -5.6763,-35.2622 -323.90715,-0.7245 c 5.11686,10.733 6.63538,28.4583 9.31053,37.5015 z"
         id="sol-on-etek"
         sodipodi:nodetypes="ccccc" />
      <path
         style="fill:none;stroke:none;stroke-width:2"
         d="m 103.25397,1253.4635 c 0.7977,-9.98 20.17411,-87.2549 106.92359,-87.7807 73.46764,0.08 101.29691,53.5701 110.35067,88.1164 l -21.968,0.14 c -5.6703,-13.7993 -23.28308,-65.3041 -87.7408,-67.1382 -61.23619,0.94 -82.04747,53.9874 -88.15253,66.9811 z"
         id="sol-on-dodik"
         sodipodi:nodetypes="ccccccc" />
      <path
         style="opacity:0.81;fill:none"
         d="m 789.00169,1290.0565 17.66539,0.1885 c 5.83717,-39.4938 35.22319,-105.1359 98.20251,-105.8744 67.1956,-2.1147 89.44335,68.6405 89.44335,68.6405 l 21.31746,0.03 c -2.7975,-5.4258 -15.4523,-84.9542 -110.78664,-84.3652 -74.80656,0.6879 -94.81728,63.859 -102.05534,79.2273 -6.32459,15.0966 -9.24347,28.1339 -13.78673,42.1533 z"
         id="sol-arka-dodik"
         sodipodi:nodetypes="cccccccc" />
      <path
         id="path3070"
         style="fill:none;stroke:#000000;stroke-width:5"
         d="M 748.57,752.86 C 790,737.14 888.57,741.43 940,740 c 51.43,-1.43 160.5,10.23 201.4,27.14 41,16.93 134.8,67.66 151.5,72.86 22.8,7.14 41.4,7.14 80,20 38.5,12.86 25.7,32.86 25.7,32.86 l 0.015,4.4136 0.3834,45.87036 c 0,0 1.0018,-0.28396 5.3018,13.99604 4.3,14.29 5.7,31.43 -2.9,41.43 -8.5,10.03 -14.3,-1.43 -18.5,12.83 -4.3,14.3 -2.9,28.6 -27.2,27.2 -24.3,-1.5 -98.6,0 -98.6,0 0,0 -15.7,-108.6 -98.5,-105.74 -82.9,2.85 -95.7,105.74 -95.7,105.74 H 562.86 c 0,0 -5.72,-104.31 -97.15,-105.74 -91.42,-1.43 -98.57,105.74 -98.57,105.74 H 301.43 L 282.86,1000 c -0.52,0 -26.25,0 -21.43,-17.14 4.65,-16.56 -4.29,-41.43 17.14,-41.43 21.43,0 47.14,1.43 47.14,1.43 L 341.43,898.57 300,895.71 c 0,0 34.29,-24.28 118.57,-32.85 84.29,-8.57 157.14,-8.57 192.86,-31.43 35.71,-22.86 137.14,-78.57 137.14,-78.57 z"
         sodipodi:nodetypes="csssscccsssscsccscccsscccssc"
         transform="translate(-254,254)"
         inkscape:connector-curvature="0" />
      <path
         id="path3846"
         d="m282.86 1e3h92.85"
         style="stroke:#000000;stroke-width:2;fill:none"
         transform="translate(-254 254)"
         inkscape:connector-curvature="0" />
      <path
         id="sol-on-cam"
         style="stroke:#000000;stroke-width:5;fill:#f0ffeb"
         d="m618.57 847.14c15.72-18.57 123.38-81.52 151.43-88.57 29.5-7.41 103-7.14 103-7.14l-7.14 95.71z"
         sodipodi:nodetypes="csccc"
         transform="translate(-254 254)"
         inkscape:connector-curvature="0" />
      <path
         id="path3850"
         d="m555.71 1e3h517.19"
         style="stroke:#000000;stroke-width:2;fill:none"
         transform="translate(-254 254)"
         inkscape:connector-curvature="0" />
      <path
         id="path3852"
         d="m1245.7 1e3h151.4"
         style="stroke:#000000;stroke-width:2;fill:none"
         transform="translate(-254 254)"
         inkscape:connector-curvature="0" />
      <path
         id="path3888"
         d="m658.57 817.14v28.57"
         style="stroke:#000000;stroke-width:2;fill:none"
         transform="translate(-254 254)"
         inkscape:connector-curvature="0" />
      <path
         id="sol-arka-kelebek"
         style="stroke:#000000;stroke-width:5;fill:#f0ffeb"
         d="m1065.7 760s80 84.29 85.7 87.14c5.7 2.86 115.7 1.43 115.7 1.43s-77.1-47.14-102.8-58.57-90-31.43-98.6-30z"
         sodipodi:nodetypes="cscsc"
         transform="translate(-254 254)"
         inkscape:connector-curvature="0" />
      <path
         id="path3900"
         style="stroke:#000000;stroke-width:5;fill:none"
         d="m599.64 837.66c-14.08 30.97-18.3 71.79-18.3 94.31s4.22 91.53 22.52 105.53"
         sodipodi:nodetypes="csc"
         transform="translate(-254 254)"
         inkscape:connector-curvature="0" />
      <path
         id="path3900-6"
         d="m632.78 993.13c-1.4 5.63-4.04 81.87-6.51 106.97-3.67 18.7-4.98 51.2-6.15 87.3 0 22.5 7.03 80.2 12.66 105.5"
         sodipodi:nodetypes="cccc"
         style="stroke:#000000;stroke-width:5;fill:none"
         inkscape:connector-curvature="0" />
      <path
         id="path2493"
         d="m 356.94547,999.30479 c 0,0 16.06453,-87.04479 107.56453,-87.04479 91.49,0 109.79,87.27 109.79,87.27"
         style="fill:none;stroke:#000000;stroke-width:2"
         transform="translate(-254,254)"
         inkscape:connector-curvature="0"
         sodipodi:nodetypes="csc" />
      <path
         id="path2625"
         d="m800.29 1253.5s15.48-85.8 106.98-85.8c91.49 0 109.83 87.2 109.83 87.2"
         style="stroke:#000000;stroke-width:2;fill:none"
         inkscape:connector-curvature="0" />
      <path
         id="path3940"
         style="stroke:#000000;stroke-width:2;fill:none"
         d="m323.75 943.23h63.34"
         sodipodi:nodetypes="cc"
         transform="translate(-254 254)"
         inkscape:connector-curvature="0" />
      <path
         id="path3942"
         style="fill:none;stroke:#000000;stroke-width:5"
         d="m 1031.3808,744.84353 c 18.3,12.67 58.1192,51.99647 94.7192,105.48647 36.6,53.49 8.4,59.12 -18.3,74.6 -26.8,15.49 -49.3,42.23 -67.6,112.57"
         sodipodi:nodetypes="cssc"
         transform="translate(-254,254)"
         inkscape:connector-curvature="0" />
      <path
         id="path3944"
         d="M 1144.1293,1196.8543 983.28,1196"
         sodipodi:nodetypes="cc"
         style="fill:none;stroke:#000000;stroke-width:2"
         inkscape:connector-curvature="0" />
      <path
         id="path3946"
         d="m540.52 941.82h544.78"
         style="stroke:#000000;stroke-width:2;fill:none"
         transform="translate(-254 254)"
         inkscape:connector-curvature="0" />
      <path
         id="path3948"
         d="m1062.7 791.21v54.9"
         style="stroke:#000000;stroke-width:2;fill:none"
         transform="translate(-254 254)"
         inkscape:connector-curvature="0" />
      <rect
         id="sol-on-kapi-kolu"
         style="stroke:#000000;stroke-width:2;fill:#e6e6e6"
         rx="2.9331"
         ry="7.379"
         height="14.541"
         width="41.286"
         y="1144.9"
         x="558.65" />
      <rect
         id="sol-arka-kapi-kolu"
         style="stroke:#000000;stroke-width:2;fill:#e6e6e6"
         rx="2.9331"
         ry="7.379"
         height="14.541"
         width="41.286"
         y="1144.9"
         x="816.24" />
      <rect
         id="rect4014"
         style="stroke:#000000;stroke-width:2;fill:#ffcb00"
         rx="1.6302"
         ry="7.692"
         height="11.738"
         width="18.776"
         y="1146.3"
         x="259.53" />
      <path
         style="fill:none"
         d="m 628.77515,1254.9718 c 1.94081,11.7455 3.55564,23.7174 5.9451,35.1514 l 149.32983,-0.053 10.74654,-35.0675 z"
         id="path703"
         sodipodi:nodetypes="ccccc" />
    </g>
    <g
       id="ust"
       transform="translate(-13.78 15.524)">
      <path
         style="fill:none"
         d="m 481.37809,968.98412 -8.40383,-77.5225 0.27765,-161.78171 80.02222,-0.0557 c -9.47533,1.67194 -19.48001,9.52736 -25.13254,29.90443 l -0.46072,118.90397 c 5.86368,10.6671 -1.47285,21.27243 27.11337,32.74269 l 53.68911,-0.41134 c 26.19962,-8.7517 23.67845,-19.07813 27.43476,-29.25429 l -0.78637,-124.41982 c -0.94213,-9.71529 -8.38645,-21.09691 -24.2135,-27.74738 l -138.20733,1.22003 9.35482,-58.7471 132.17824,2.1081 234.25681,-3.67464 -11.7527,65.80155 -1.6241,160.40593 12.9238,70.887 -141.54265,-3.83989 z"
         id="tavan"
         sodipodi:nodetypes="cccccccccccccccccccc" />
      <path
         style="fill:#f0ffeb"
         d="m 529.33642,756.96621 0.0143,127.13432 c 5.65156,22.59117 20.20474,25.37997 27.21058,26.07839 l 54.84203,-0.0152 c 16.46035,-6.48104 19.84798,-16.44109 24.05412,-26.82681 l -0.1374,-126.72957 c -5.81895,-9.46008 -4.03328,-20.15783 -25.92934,-27.00132 l -53.8444,-0.4497 c -19.83661,5.46978 -22.13093,16.94532 -26.20989,27.80987 z"
         id="sunroof"
         sodipodi:nodetypes="ccccccccc" />
      <path
         style="fill:none"
         d="m 1009.525,976.00087 -1.2347,24.19913 31.3767,6.0038 106.9885,-0.7532 14.2011,-99.98812 0.3429,-166.1915 -13.85,-104.70763 -109.5577,-2.51166 -205.0924,39.83247 -12.1971,66.17515 0.5736,159.75623 11.1727,69.99078 176.4978,33.47878 1.1831,-28.05165 -63.6858,-0.52381 -104.3291,-24.35711 -6.2407,-49.60157 -0.4314,-158.66763 7.4845,-52.68541 110.3081,-25.33125 56.7508,1.86021 z"
         id="bagaj-kapisi"
         sodipodi:nodetypes="cccccccccccccccccccccc" />
      <path
         id="arka-cam"
         style="stroke:#000000;stroke-width:5;fill:#f0ffeb"
         d="m1097.9 435.09s-8.4 40.82-8.4 56.3v144.98c0 19.71 7 57.72 7 57.72s94.3 26.74 123.9 26.74h42.2v-312.49h-47.8c-25.4 0-116.9 26.75-116.9 26.75z"
         sodipodi:nodetypes="csscsccsc"
         transform="translate(-254 254)"
         inkscape:connector-curvature="0" />
      <path
         id="path4141"
         sodipodi:r2="13.712585"
         style="stroke:#000000;stroke-width:5;fill:none"
         sodipodi:type="star"
         d="m99.998 388.64-11.712 16.12-18.95-6.16v-19.92l18.95-6.16z"
         sodipodi:r1="16.949688"
         inkscape:transform-center-x="-1.6185511"
         transform="translate(-37.23 423.95)"
         sodipodi:arg2="0.62831853"
         sodipodi:arg1="0"
         inkscape:randomized="0"
         sodipodi:cy="388.63797"
         sodipodi:cx="83.048103"
         inkscape:rounded="0"
         inkscape:flatsided="true"
         sodipodi:sides="5" />
      <path
         id="path4143"
         d="m31.742 745.02 315.3-111.2"
         sodipodi:nodetypes="cc"
         style="stroke:#000000;stroke-width:2;fill:none"
         inkscape:connector-curvature="0" />
      <path
         id="path4145"
         d="m30.334 888.6 315.31 115.4"
         sodipodi:nodetypes="cc"
         style="stroke:#000000;stroke-width:2;fill:none"
         inkscape:connector-curvature="0" />
      <path
         id="on-cam"
         style="stroke:#000000;stroke-width:5;fill:#f0ffeb"
         d="m595.41 378.78 140.76 38.01s-8.44 49.22-8.44 71.96v147.62c0 30.97 8.44 78.83 8.44 78.83l-140.76 33.78s-17.24-61.9-17.24-92.9c0.38-33.8 1.76-154.8 2.11-185.8-1.41-30.97 15.13-91.5 15.13-91.5z"
         sodipodi:nodetypes="ccssccccc"
         transform="translate(-254 254)"
         inkscape:connector-curvature="0" />
      <path
         id="kaput"
         d="m345.78 632.78h-294.19l-14.076 102.76-7.038 11.26v142.17l7.038 14.07 15.483 101.36h288.55"
         sodipodi:nodetypes="cccccccc"
         style="stroke:#000000;stroke-width:5;fill:none"
         inkscape:connector-curvature="0" />
      <path
         id="path18348"
         style="stroke:#000000;stroke-width:5;fill:none"
         d="m1086.7 416.79s-12.7 47.86-12.7 73.19v146.39c0 25.34 12.7 77.42 12.7 77.42l205.5 38.01h108.4s14-81.64 14-115.43v-147.79c0-38.01-14-109.8-14-109.8h-108.4z"
         sodipodi:nodetypes="csscccssccc"
         transform="translate(-254 254)"
         inkscape:connector-curvature="0" />
      <path
         id="path4207"
         d="m1292.2 378.78s30.9 40.83 30.9 111.2v146.39c0 64.75-30.9 116.84-30.9 116.84"
         style="stroke:#000000;stroke-width:2;fill:none"
         transform="translate(-254 254)"
         inkscape:connector-curvature="0" />
      <path
         id="path4209"
         d="m578.52 489.98 32.38-32.37v-40.82 112.61"
         style="stroke:#000000;stroke-width:2;fill:none"
         transform="translate(-254 254)"
         inkscape:connector-curvature="0" />
      <path
         id="path4209-7"
         d="m323.82 865.04 32.37-32.38v-40.82 112.61"
         style="stroke:#000000;stroke-width:2;fill:none"
         inkscape:connector-curvature="0" />
      <path
         id="path4209-76"
         d="m1005.1 787.62-32.38-32.37v-40.82 112.6"
         style="stroke:#000000;stroke-width:2;fill:none"
         inkscape:connector-curvature="0" />
      <path
         id="path4243"
         style="stroke:#000000;stroke-width:2;fill:none"
         d="m595.41 378.78s-42.23 78.83-42.23 111.2v146.39c0 40.82 42.23 114.02 42.23 114.02"
         sodipodi:nodetypes="cssc"
         transform="translate(-254 254)"
         inkscape:connector-curvature="0" />
      <path
         id="path18559"
         style="stroke:#000000;stroke-width:5"
         d="m736.17 416.79s94.31 5.63 152.02 5.63c106.98 0 201.31-5.63 201.31-5.63m-1.4 297s-77.4-5.63-199.91-5.63c-68.97 0-152.02 7.04-152.02 7.04"
         sodipodi:nodetypes="csccsc"
         transform="translate(-254 254)"
         inkscape:connector-curvature="0" />
      <rect
         id="rect2361"
         style="stroke:#000000;stroke-width:2;fill:none"
         rx="31.19"
         ry="34.436"
         height="181.58"
         width="106.98"
         y="729.21"
         x="528.62" />
      <path
         id="path3855"
         style="fill:none;stroke:#000000;stroke-width:2"
         inkscape:connector-curvature="0"
         d="m 783.80108,828.48891 -38.71,-38.71" />
      <path
         d="m 833.2529,670.90585 c -108.81801,5.76514 -235.28514,11.67424 -350.38484,-1.92809 -12.66551,105.03804 -10.67797,209.72531 -0.1734,301.98238 155.51373,-17.40885 246.49493,-7.60779 349.77614,-2.99298 -14.90156,-71.00226 -20.80014,-243.07168 0.7821,-297.06131 z"
         id="path1477"
         style="fill:none"
         sodipodi:nodetypes="ccccc" />
      <path
         style="fill:none;stroke-width:0.989371"
         d="m 534.99874,741.71997 c -12.88042,8.25622 -9.78107,151.86295 -0.58652,157.7635 26.71174,23.79354 84.93792,9.66927 94.02432,2.69514 16.60982,-41.36683 6.49122,-155.43637 2.02387,-160.57092 -3.93751,-14.25414 -78.74605,-22.764 -95.46167,0.11228 z"
         id="path18751"
         sodipodi:nodetypes="ccccc" />
    </g>
    <g
       id="sag"
       transform="translate(-13.78 15.524)">
      <path
         style="fill:none"
         d="m 626.20538,395.41346 -6.17465,59.68157 6.6532,94.52094 6.45379,104.10516 c 48.84986,-1.20777 97.88119,0.3166 146.42328,-5.52476 31.6643,-30.40062 56.531,-47.60457 87.44241,-95.49052 l 23.94488,-48.55165 -7.20875,-16.64301 c -26.64871,-20.37198 -18.4747,0.62911 -27.71205,0.94367 0.59154,4.32182 2.1326,8.36623 -0.10231,13.16285 l -10.29233,45.59795 c -13.16658,23.76138 -28.87639,48.62337 -48.55668,71.48024 -8.79251,8.41324 -19.23829,14.31053 -29.37501,20.67813 -41.45792,2.92338 -82.91583,1.92393 -124.37374,2.46155 l -1.62191,-93.60917 205.66486,-1.97785 8.62013,-43.43426 -6.77514,0.27787 -31.35231,-0.13944 c -1.20006,-4.78376 -1.06911,-9.78837 0.42386,-14.11863 l 64.7237,-0.0709 c -8.55618,-9.05173 0.92468,-0.66113 -11.01631,-8.76453 -70.43592,-39.71749 -57.45233,-57.28165 -74.4125,-84.92563 z"
         id="sag-arka-kapi"
         sodipodi:nodetypes="cccccccccccccccccccccccc" />
      <path
         style="fill:none"
         d="m 122.4484,394.70311 -19.14185,0.33561 7.36176,23.61685 c 6.15717,14.31497 15.27146,24.20128 24.17679,34.40052 43.80732,37.88673 85.64607,27.10851 71.15038,29.32452 30.46648,1.72347 51.82261,-9.69666 73.10795,-21.21894 12.76069,-11.37697 23.2417,-23.70403 29.79955,-37.66612 4.12146,-9.55536 9.03847,-18.68672 11.36728,-29.19752 l -20.10904,-0.27942 c -6.35797,14.97554 -13.93361,28.24388 -23.68942,41.65945 -15.86684,10.90039 -31.9264,21.57748 -53.74514,25.58173 -17.02333,1.72653 -33.61774,-1.31805 -49.9757,-6.99284 -11.21847,-7.73392 -23.77802,-14.07232 -32.15003,-24.76825 z"
         id="sag-on-dodik"
         sodipodi:nodetypes="cccccccccccccc" />
      <path
         style="fill:none"
         d="m 335.38096,394.53977 c -3.74577,25.32021 -5.31346,50.97068 -6.51675,76.67641 2.37524,28.70091 6.90636,55.91007 14.41597,83.82618 l 155.91436,88.77081 38.30355,5.75225 96.02298,4.23212 -8.29026,-112.6979 -15.34264,1.99956 8.28579,98.61817 -86.40561,-4.39804 c -10.14293,5.62724 -113.05895,-45.07248 -166.25125,-89.96716 62.21249,-0.44021 218.24335,2.61083 241.32044,0.34207 l -3.06036,-45.08779 c -17.72133,1.94341 -28.97459,0.54302 -43.39229,0.77855 -2.71186,-4.83401 -2.34763,-9.66803 -0.042,-14.50204 l 37.60935,0.0258 c 1.22587,3.49919 3.06595,6.54018 1.24993,12.30871 l 3.46456,21.80349 3.9458,24.83204 19.38987,-2.81332 c -4.45532,-31.28601 -4.83767,-63.42835 -6.1083,-95.50148 1.52478,-33.32675 1.50578,-25.61649 6.65008,-56.03126 -45.70328,4.17026 -195.42904,-0.25117 -291.16321,1.03281 z"
         id="path24075"
         sodipodi:nodetypes="cccccccccccccccccccccccc" />
      <path
         style="fill:none"
         d="m 782.10111,648.66309 c 34.67923,-4.25068 69.86311,-10.97735 105.61549,-20.49335 l 153.6971,-74.42499 36.8047,-8.39917 v -9.91147 l -65.7158,2.52871 -2.273,9.5168 -97.8494,56.23248 c -30.89909,11.32501 -61.84815,22.47985 -93.89654,29.89038 l -6.34251,0.34788 85.69405,-88.06498 c 62.7569,-0.60764 137.8243,6.81643 188.2707,-1.82292 l 48.9246,-14.77004 c 5.7198,-4.35621 9.5284,-12.17649 13.3683,-19.94008 -5.9449,-16.81494 -3.1394,-37.27078 -4.898,-56.72327 5.2591,-11.81722 11.0606,-23.24475 10.7882,-39.03631 -1.4972,-7.65371 -3.4428,-14.9592 -8.5789,-19.78735 -4.1422,-4.25668 -8.32,-2.29688 -12.4821,-3.09026 l -10.085,-27.70428 c -7.1785,-4.68972 -10.8066,-6.3623 -12.8351,-6.97623 l -106.5531,-0.727 -12.81633,39.27738 26.31083,-0.0782 c -3.7924,20.10153 -16.6042,39.22226 -33.81988,57.8641 -11.78767,14.40316 -34.79341,23.32662 -60.02512,27.3456 -18.92874,3.97463 -41.63222,-1.03233 -64.7561,-7.0396 l 28.3124,18.99251 c 2.34666,9.21225 2.9125,18.30944 -0.8605,27.12629 -28.91996,52.05134 -64.94717,88.57422 -103.99899,129.86737 z"
         id="sag-arka-camurluk"
         sodipodi:nodetypes="ccccccccccccccccccccccccccccc" />
      <path
         style="fill:none"
         d="M 46.61179,501.06536 86.9646,497.81523 71.91603,451.17507 17.03584,452.31655 C 3.2855952,433.11357 10.19212,420.72181 6.77026,404.92444 10.827082,397.67378 19.802113,395.6275 29.5837,394.43472 l 18.6249,-38.24444 65.39945,0.38438 7.473,37.84494 -19.14181,-0.15843 7.64877,22.57477 c 6.34044,13.3782 13.03505,26.25668 23.83919,36.08488 25.55488,23.6868 39.78909,23.74899 56.68934,27.81612 6.91059,1.66307 13.60925,0.61407 22.03186,1.74455 16.10357,-0.0655 29.93249,-2.38723 44.32912,-9.05272 11.11004,-5.14382 23.47817,-13.33597 32.54998,-22.05502 15.24466,-16.19692 26.34021,-34.63671 32.01455,-56.14471 l 13.02106,-0.66591 c -15.04806,123.49177 2.38619,113.70283 9.93602,160.69902 -60.35044,-17.1042 -127.60684,-22.68647 -194.27876,-25.80999 -41.67766,-1.95255 -75.189765,-18.76678 -103.10858,-28.3868 z"
         id="sag-on-camurluk"
         sodipodi:nodetypes="ccccccccccccscsccccsc" />
      <path
         style="fill:none"
         d="m 820.25614,393.67374 -9.4981,-38.31844 -178.50594,0.98254 -6.89864,42.22676 c 172.49734,-1.22144 22.37267,-4.6596 194.90268,-4.89086 z"
         id="sag-arka-etek"
         sodipodi:nodetypes="ccccc" />
      <path
         style="fill:none"
         d="m 626.85133,394.44663 6.55207,-37.2936 -286.10302,-1.25845 c -7.2732,12.31025 -11.14174,25.0209 -13.46624,37.91315 z"
         id="sag-on-etek"
         sodipodi:nodetypes="ccccc" />
      <path
         style="fill:none"
         d="m 798.5087,395.17941 21.39747,-0.65889 c 14.66504,26.85679 21.88114,59.66273 88.47688,67.74288 58.77145,-15.87083 58.02883,-21.81413 84.8593,-68.50273 l 24.24455,1.36782 c -16.3013,38.31101 -32.85146,82.09536 -111.64242,86.01159 -70.21896,-5.04229 -89.35194,-44.59798 -107.33578,-85.96067 z"
         id="sag-arka-dodik"
         sodipodi:nodetypes="ccccccc" />
      <path
         id="path3070-9"
         d="m 494.57,641.61 c 41.43,15.72 140,11.43 191.43,12.86 51.43,1.43 160.47,-10.23 201.43,-27.14 40.99,-16.93 134.77,-67.66 151.47,-72.86 22.8,-7.14 41.4,-7.14 80,-20 38.5,-12.86 25.7,-32.86 25.7,-32.86 l -0.7297,-3.64462 -0.494,-47.70298 c 0,0 2.6237,1.3476 6.9237,-12.9324 4.3,-14.29 5.7,-31.43 -2.9,-41.43 -8.5,-10 -14.3,1.43 -18.5,-12.86 -4.3,-14.28 -2.9,-28.57 -27.2,-27.14 -24.3,1.43 -98.6,0 -98.6,0 0,0 -15.67,108.57 -98.53,105.71 C 821.71,458.76 808.86,355.9 808.86,355.9 h -500 c 0,0 -5.72,104.29 -97.15,105.71 C 120.29,463.04 113.14,355.9 113.14,355.9 H 47.429 l -18.572,38.57 c -0.515,0 -26.243,0 -21.428,17.14 4.651,16.57 -4.2861,41.43 17.142,41.43 21.429,0 47.143,-1.43 47.143,-1.43 L 87.429,495.9 46,498.76 c 0,0 34.286,24.28 118.57,32.85 84.29,8.58 157.14,8.58 192.86,31.43 35.71,22.86 137.14,78.57 137.14,78.57 z"
         sodipodi:nodetypes="csssscccsssscsccscccsscccssc"
         style="fill:none;stroke:#000000;stroke-width:5"
         inkscape:connector-curvature="0" />
      <path
         id="path3846-2"
         d="m28.857 394.47h92.853"
         style="stroke:#000000;stroke-width:2;fill:none"
         inkscape:connector-curvature="0" />
      <path
         id="path3850-6"
         d="m301.71 394.47h517.15"
         style="stroke:#000000;stroke-width:2;fill:none"
         inkscape:connector-curvature="0" />
      <path
         id="path3852-6"
         d="m991.71 394.47h151.39"
         style="stroke:#000000;stroke-width:2;fill:none"
         inkscape:connector-curvature="0" />
      <path
         id="sag-on-cam"
         d="m364.57 547.33c15.72 18.57 123.38 81.52 151.43 88.57 29.5 7.41 103 7.14 103 7.14l-7.14-95.71z"
         sodipodi:nodetypes="csccc"
         style="stroke:#000000;stroke-width:5;fill:#f0ffeb"
         inkscape:connector-curvature="0" />
      <path
         id="path3888-9"
         d="m404.57 577.33v-28.57"
         style="stroke:#000000;stroke-width:2;fill:none"
         inkscape:connector-curvature="0" />
      <path
         id="path682"
         d="m644.7 641.63-4.29-94.32h207.17c-11.31 20.75-46.62 74.9-72.86 88.57-14.29 10-82.88 4.33-130.02 5.75z"
         sodipodi:nodetypes="ccccc"
         style="stroke:#000000;stroke-width:5;fill:#f0ffeb"
         inkscape:connector-curvature="0" />
      <path
         id="sag-arka-cam"
         d="m811.71 634.47s80-84.28 85.72-87.14c5.71-2.86 115.67-1.43 115.67-1.43s-77.1 47.14-102.81 58.57c-25.72 11.43-90 31.43-98.58 30z"
         sodipodi:nodetypes="cscsc"
         style="stroke:#000000;stroke-width:5;fill:#f0ffeb"
         inkscape:connector-curvature="0" />
      <path
         id="path3900-4"
         d="m345.64 556.81c-14.08-30.97-18.3-71.79-18.3-94.31s4.22-91.49 22.52-105.57"
         sodipodi:nodetypes="csc"
         style="stroke:#000000;stroke-width:5;fill:none"
         inkscape:connector-curvature="0" />
      <path
         id="path3900-6-8"
         d="m632.78 655.34c-1.4-5.63-4.04-81.9-6.51-106.93-3.67-18.72-4.98-51.22-6.15-87.32 0-22.52 7.03-80.23 12.66-105.57"
         sodipodi:nodetypes="cccc"
         style="stroke:#000000;stroke-width:5;fill:none"
         inkscape:connector-curvature="0" />
      <path
         id="path24329"
         d="m 102.81811,394.70913 c 0,0 16.19189,87.50087 107.69189,87.50087 91.49,0 109.79,-87.27 109.79,-87.27"
         style="fill:none;stroke:#000000;stroke-width:2"
         inkscape:connector-curvature="0"
         sodipodi:nodetypes="csc" />
      <path
         id="path20257"
         d="m800.29 394.94s15.48 85.86 106.98 85.86c91.49 0 109.83-87.27 109.83-87.27"
         style="stroke:#000000;stroke-width:2;fill:none"
         inkscape:connector-curvature="0" />
      <path
         id="path3940-7"
         d="m69.747 451.24h63.343"
         sodipodi:nodetypes="cc"
         style="stroke:#000000;stroke-width:2;fill:none"
         inkscape:connector-curvature="0" />
      <path
         id="path3942-2"
         d="m779.17 648.3c18.3-12.66 56.31-50.67 92.91-104.16 36.59-53.49 8.44-59.12-18.3-74.6-26.75-15.48-49.27-42.23-67.57-112.61"
         sodipodi:nodetypes="cssc"
         style="stroke:#000000;stroke-width:5;fill:none"
         inkscape:connector-curvature="0" />
      <path
         id="path3944-7"
         d="M 1143.0719,452.894 983.28,452.43"
         sodipodi:nodetypes="cc"
         style="fill:none;stroke:#000000;stroke-width:2"
         inkscape:connector-curvature="0" />
      <path
         id="path3946-2"
         d="m286.52 452.65h544.74"
         style="stroke:#000000;stroke-width:2;fill:none"
         inkscape:connector-curvature="0" />
      <path
         id="path3948-2"
         d="m808.73 603.26v-54.9"
         style="stroke:#000000;stroke-width:2;fill:none"
         inkscape:connector-curvature="0" />
      <rect
         id="sag-on-kapi"
         ry="7.379"
         style="stroke:#000000;stroke-width:2;fill:#e6e6e6"
         rx="2.9331"
         transform="scale(1,-1)"
         height="14.541"
         width="41.286"
         y="-503.55"
         x="558.65" />
      <rect
         id="sag-arka-kapi-kolu"
         ry="7.379"
         style="stroke:#000000;stroke-width:2;fill:#e6e6e6"
         rx="2.9331"
         transform="scale(1,-1)"
         height="14.541"
         width="41.286"
         y="-503.55"
         x="816.24" />
      <rect
         id="rect4014-0"
         ry="7.692"
         style="stroke:#000000;stroke-width:2;fill:#ffcb00"
         rx="1.6302"
         transform="scale(1,-1)"
         height="11.738"
         width="18.776"
         y="-502.15"
         x="259.53" />
      <path
         id="yakit-depo-kapagi"
         style="stroke:#000000;stroke-width:2;fill:#ffffff"
         transform="translate(941.34 284.01)"
         d="m76.01 211.28c0 9.33-7.562 16.89-16.891 16.89s-16.891-7.56-16.891-16.89 7.562-16.89 16.891-16.89 16.891 7.56 16.891 16.89z"
         sodipodi:type="arc"
         sodipodi:ry="16.89114"
         sodipodi:rx="16.89114"
         sodipodi:cy="211.28101"
         sodipodi:cx="59.118988" />
    </g>
    <rect
       id="on-tampon-demir"
       style="stroke:#000000;stroke-width:5;fill:none"
       height="377.24"
       width="30.967"
       y="645.49"
       x="-62.939" />
    <g
       id="on-sol-lastik">
      <path
         id="path4610"
         style="stroke:#000000;stroke-width:2;fill:#c8c8c8"
         transform="translate(78.489 1074.7)"
         d="m195.66 202.84a76.01 76.01 0 1 1 -152.02 0 76.01 76.01 0 1 1 152.02 0z"
         sodipodi:type="arc"
         sodipodi:ry="76.010124"
         sodipodi:rx="76.010124"
         sodipodi:cy="202.83545"
         sodipodi:cx="119.64557" />
      <path
         id="path4612"
         style="stroke:#000000;stroke-width:2;fill:#ffffff"
         transform="translate(94.676 1204.9)"
         d="m147.8 72.633a44.339 44.339 0 1 1 -88.681 0 44.339 44.339 0 1 1 88.681 0z"
         sodipodi:type="arc"
         sodipodi:ry="44.339241"
         sodipodi:rx="44.339241"
         sodipodi:cy="72.632912"
         sodipodi:cx="103.45823" />
    </g>
    <g
       id="on-sag-lastik">
      <path
         id="path4610-9"
         style="stroke:#000000;stroke-width:2;fill:#c8c8c8"
         transform="translate(78.489 187.66)"
         d="m195.66 202.84a76.01 76.01 0 1 1 -152.02 0 76.01 76.01 0 1 1 152.02 0z"
         sodipodi:type="arc"
         sodipodi:ry="76.010124"
         sodipodi:rx="76.010124"
         sodipodi:cy="202.83545"
         sodipodi:cx="119.64557" />
      <path
         id="path4612-4"
         style="stroke:#000000;stroke-width:2;fill:#ffffff"
         transform="translate(94.676 317.86)"
         d="m147.8 72.633a44.339 44.339 0 1 1 -88.681 0 44.339 44.339 0 1 1 88.681 0z"
         sodipodi:type="arc"
         sodipodi:ry="44.339241"
         sodipodi:rx="44.339241"
         sodipodi:cy="72.632912"
         sodipodi:cx="103.45823" />
    </g>
    <g
       id="arka-sag-lastik">
      <path
         id="path4610-5"
         style="stroke:#000000;stroke-width:2;fill:#c8c8c8"
         transform="translate(773.03 187.66)"
         d="m195.66 202.84a76.01 76.01 0 1 1 -152.02 0 76.01 76.01 0 1 1 152.02 0z"
         sodipodi:type="arc"
         sodipodi:ry="76.010124"
         sodipodi:rx="76.010124"
         sodipodi:cy="202.83545"
         sodipodi:cx="119.64557" />
      <path
         id="path4612-1"
         style="stroke:#000000;stroke-width:2;fill:#ffffff"
         transform="translate(789.21 317.86)"
         d="m147.8 72.633a44.339 44.339 0 1 1 -88.681 0 44.339 44.339 0 1 1 88.681 0z"
         sodipodi:type="arc"
         sodipodi:ry="44.339241"
         sodipodi:rx="44.339241"
         sodipodi:cy="72.632912"
         sodipodi:cx="103.45823" />
    </g>
    <g
       id="sol-arka-lastik">
      <path
         id="path4610-4"
         style="stroke:#000000;stroke-width:2;fill:#c8c8c8"
         transform="translate(773.03 1074.7)"
         d="m195.66 202.84a76.01 76.01 0 1 1 -152.02 0 76.01 76.01 0 1 1 152.02 0z"
         sodipodi:type="arc"
         sodipodi:ry="76.010124"
         sodipodi:rx="76.010124"
         sodipodi:cy="202.83545"
         sodipodi:cx="119.64557" />
      <path
         id="path4612-3"
         style="stroke:#000000;stroke-width:2;fill:#ffffff"
         transform="translate(789.21 1204.9)"
         d="m147.8 72.633a44.339 44.339 0 1 1 -88.681 0 44.339 44.339 0 1 1 88.681 0z"
         sodipodi:type="arc"
         sodipodi:ry="44.339241"
         sodipodi:rx="44.339241"
         sodipodi:cy="72.632912"
         sodipodi:cx="103.45823" />
    </g>
  </g>
  <metadata
     id="metadata579">
    <rdf:RDF>
      <cc:Work>
        <dc:format>image/svg+xml</dc:format>
        <dc:type
           rdf:resource="http://purl.org/dc/dcmitype/StillImage" />
        <cc:license
           rdf:resource="http://creativecommons.org/licenses/publicdomain/" />
        <dc:publisher>
          <cc:Agent
             rdf:about="http://openclipart.org/">
            <dc:title>Openclipart</dc:title>
          </cc:Agent>
        </dc:publisher>
        <dc:title>unfolded car</dc:title>
        <dc:date>2011-05-04T09:13:55</dc:date>
        <dc:description>A default unfolded model of a car for damage/repair indication in a body shop</dc:description>
        <dc:source>https://openclipart.org/detail/135685/unfolded-car-by-tobias-moon</dc:source>
        <dc:creator>
          <cc:Agent>
            <dc:title>Tobias Moon</dc:title>
          </cc:Agent>
        </dc:creator>
        <dc:subject>
          <rdf:Bag>
            <rdf:li>automobile</rdf:li>
            <rdf:li>berline</rdf:li>
            <rdf:li>body</rdf:li>
            <rdf:li>car</rdf:li>
            <rdf:li>cutout</rdf:li>
            <rdf:li>damage</rdf:li>
            <rdf:li>details</rdf:li>
            <rdf:li>flat</rdf:li>
            <rdf:li>indicator</rdf:li>
            <rdf:li>model</rdf:li>
            <rdf:li>parts</rdf:li>
            <rdf:li>repair</rdf:li>
            <rdf:li>sedan</rdf:li>
            <rdf:li>unfold</rdf:li>
            <rdf:li>vehicle</rdf:li>
          </rdf:Bag>
        </dc:subject>
      </cc:Work>
      <cc:License
         rdf:about="http://creativecommons.org/licenses/publicdomain/">
        <cc:permits
           rdf:resource="http://creativecommons.org/ns#Reproduction" />
        <cc:permits
           rdf:resource="http://creativecommons.org/ns#Distribution" />
        <cc:permits
           rdf:resource="http://creativecommons.org/ns#DerivativeWorks" />
      </cc:License>
    </rdf:RDF>
  </metadata>
  <g
     id="arka-tampon"
     transform="translate(252.67635,-251.60794)">
    <rect
       id="rect4467-6-5"
       style="fill:none;stroke:#000000;stroke-width:2"
       transform="scale(-1,1)"
       rx="7.7417998"
       ry="6.2844"
       height="35.189999"
       width="16.891001"
       y="986.16998"
       x="-1329.9" />
    <rect
       id="rect4467-5"
       style="fill:none;stroke:#000000;stroke-width:2"
       transform="scale(-1,1)"
       rx="7.7417998"
       ry="6.2844"
       height="35.189999"
       width="16.891001"
       y="648.90002"
       x="-1329.9" />
    <path
       id="path4381-0"
       sodipodi:nodetypes="cssc"
       style="fill:none;stroke:#000000;stroke-width:5"
       inkscape:connector-curvature="0"
       d="m 1302.5,624.97 c 0,0 35.2,-1.41 35.2,21.12 v 371.61 c 0,22.5 -36.6,25.3 -36.6,25.3" />
    <path
       id="path4377-2"
       sodipodi:nodetypes="csccsc"
       style="fill:none;stroke:#000000;stroke-width:5"
       inkscape:connector-curvature="0"
       d="m 1268.8,624.97 c 0,0 4.2,-12.67 18.3,-12.67 14,0 14,8.45 14,8.45 v 423.65 c 0,0 -1.4,9.9 -14,9.9 -12.7,0 -19.8184,-11.8965 -19.8184,-11.8965" />
    <path
       id="path4556"
       style="fill:none;stroke:#000000;stroke-width:2"
       inkscape:connector-curvature="0"
       d="M 1254.6,707.43 V 963.61" />
    <path
       id="path4536-0"
       style="fill:none;stroke:#000000;stroke-width:2"
       inkscape:connector-curvature="0"
       d="M 1224.2,961.98 V 908.49" />
    <path
       id="path4536"
       style="fill:none;stroke:#000000;stroke-width:2"
       inkscape:connector-curvature="0"
       d="M 1224.2,758.1 V 704.61" />
    <path
       id="path4505"
       style="fill:none;stroke:#000000;stroke-width:5"
       inkscape:connector-curvature="0"
       d="m 1268.252,706.65395 0.2139,256.83844"
       sodipodi:nodetypes="cc" />
    <rect
       id="rect4534"
       style="fill:none;stroke:#000000;stroke-width:2"
       height="147.8"
       width="14.076"
       y="759.51001"
       x="1216.6" />
    <path
       id="path4503"
       style="fill:none;stroke:#000000;stroke-width:5"
       inkscape:connector-curvature="0"
       d="m 1200.5193,706.18549 0.5431,257.18668"
       sodipodi:nodetypes="cc" />
    <path
       id="arka-tampon-sol-stop"
       sodipodi:nodetypes="cccccc"
       style="fill:#eb3440;stroke-width:5"
       inkscape:connector-curvature="0"
       d="m 1200.9,963.24 h 67.6 v 78.86 l -23.9,14 -43.7,-18.3 z" />
    <path
       id="arka-tampon-sag-stop"
       sodipodi:nodetypes="cccccc"
       style="fill:#eb3440;stroke-width:5"
       inkscape:connector-curvature="0"
       d="m 1200.9,633.86 v 73.19 h 67.6 V 624 l -25.3,-14.07 z" />
    <path
       id="path4587"
       sodipodi:nodetypes="cc"
       style="fill:none;stroke:#000000;stroke-width:2"
       inkscape:connector-curvature="0"
       d="m 1199.7,708.02 67.5,-73.19" />
    <path
       id="path4585"
       style="fill:none;stroke:#000000;stroke-width:2"
       inkscape:connector-curvature="0"
       d="m 1199.7,632.83 67.5,74.6" />
    <path
       id="path4585-9"
       style="fill:none;stroke:#000000;stroke-width:2"
       inkscape:connector-curvature="0"
       d="m 1199.9,962.98 67.6,74.62" />
    <path
       id="path4587-0"
       sodipodi:nodetypes="cc"
       style="fill:none;stroke:#000000;stroke-width:2"
       inkscape:connector-curvature="0"
       d="m 1199.9,1038.2 67.6,-73.22" />
    <path
       id="path3083"
       style="fill:none;stroke:#000000;stroke-width:5"
       inkscape:connector-curvature="0"
       d="m 1338.5,829.07 h 40.8" />
    <g
       id="g3946"
       transform="translate(-13.78,17.524)">
      <circle
         id="path3857-97"
         style="fill:#3c3c3c;stroke:#000000;stroke-width:2"
         transform="translate(1381.6,448.25)"
         cx="-81.640511"
         cy="188.75949"
         r="4.222785" />
      <circle
         id="path3857-2-3"
         style="fill:#3c3c3c;stroke:#000000;stroke-width:2"
         transform="translate(1381.6,568.36)"
         cx="-81.640511"
         cy="188.75949"
         r="4.222785" />
      <circle
         id="path3857-3-6"
         style="fill:#3c3c3c;stroke:#000000;stroke-width:2"
         transform="translate(1381.6,688.48)"
         cx="-81.640511"
         cy="188.75949"
         r="4.222785" />
      <circle
         id="path3857-7-1"
         style="fill:#3c3c3c;stroke:#000000;stroke-width:2"
         transform="translate(1381.6,808.59)"
         cx="-81.640511"
         cy="188.75949"
         r="4.222785" />
    </g>
    <circle
       id="path3853"
       style="fill:#3c3c3c;stroke:#000000;stroke-width:5"
       transform="translate(1441.3,600.31)"
       cx="-59.118988"
       cy="229.57974"
       r="4.222785" />
  </g>
</svg>
