<?xml version="1.0" encoding="UTF-8" standalone="no"?>
<svg
  xmlns="http://www.w3.org/2000/svg"
  viewBox="0 0 1668 1160"
  width="1668"
  height="1160"
  version="1.1"
>
  <!-- Arka Plan: Dış Hatlar (Opsiyonel – Dokunulmaz) -->
  <g id="outlines" stroke="#000000" stroke-width="2" fill="none">
    <!-- Sol dış hat -->
    <path d="M748.57,752.86c41.43-15.72 140-11.43 191.43-12.86s160.5 10.23 201.4 27.14c41 16.93 134.8 67.66 151.5 72.86 22.8 7.14 41.4 7.14 80 20 38.5 12.86 25.7 32.86 25.7 32.86l-30-4.29-5.8 52.92s37.2 1.37 41.5 15.65c4.3 14.29 5.7 31.43-2.9 41.43-8.5 10.03-14.3-1.43-18.5 12.83-4.3 14.3-2.9 28.6-27.2 27.2-24.3-1.5-98.6 0-98.6 0s-15.7-108.6-98.5-105.74c-82.9 2.85-95.7 105.74-95.7 105.74h-500.04s-5.72-104.31-97.15-105.74c-91.42-1.43-98.57 105.74-98.57 105.74h-65.71l-18.57-38.6c-0.52 0-26.25 0-21.43-17.14 4.65-16.56-4.29-41.43 17.14-41.43s47.14 1.43 47.14 1.43l15.72-44.29-41.43-2.86s34.29-24.28 118.57-32.85c84.29-8.57 157.14-8.57 192.86-31.43 35.71-22.86 137.14-78.57 137.14-78.57z"/>
    <!-- Sağ dış hat -->
    <path d="M494.57,641.61c41.43 15.72 140 11.43 191.43 12.86s160.47-10.23 201.43-27.14c40.99-16.93 134.77-67.66 151.47-72.86 22.8-7.14 41.4-7.14 80-20 38.5-12.86 25.7-32.86 25.7-32.86l-30 4.29-5.8-52.92s37.2-1.37 41.5-15.65c4.3-14.29 5.7-31.43-2.9-41.43-8.5-10-14.3 1.43-18.5-12.86-4.3-14.28-2.9-28.57-27.2-27.14s-98.6 0-98.6 0-15.67 108.57-98.53 105.71c-82.86-2.85-95.71-105.71-95.71-105.71h-500s-5.72 104.29-97.15 105.71c-91.42 1.43-98.57-105.71-98.57-105.71h-65.711l-18.572 38.57c-0.515 0-26.243 0-21.428 17.14 4.651 16.57-4.2861 41.43 17.142 41.43 21.429 0 47.143-1.43 47.143-1.43l15.715 44.29-41.429 2.86s34.286 24.28 118.57 32.85c84.29 8.58 157.14 8.58 192.86 31.43 35.71 22.86 137.14 78.57 137.14 78.57z"/>
  </g>

  <!-- 1. Kaput -->
  <g id="hood">
    <path fill="#ffffff" stroke="#000000" stroke-width="2" d="M341.41,632.78 L482.17,670.79 C473.73,720.01 473.73,742.75 473.73,890.37 C473.73,921.34 482.17,999.17 482.17,999.17 L341.41,1032.95 C324.17,971.05 324.17,940.05 324.55,755.25 C325.96,724.28 341.41,632.78 341.41,632.78 Z"/>
  </g>

  <!-- 2. Bagaj -->
  <g id="trunk">
    <path fill="#ffffff" stroke="#000000" stroke-width="2" d="M832.7,670.79 C820.0,676.42 820.0,701.75 820.0,848.14 C820.0,873.48 832.7,925.56 832.7,925.56 L1038.2,963.57 H1146.6 C1160.6,881.93 1160.6,848.14 1160.6,848.14 V700.35 C1160.6,662.34 1146.6,590.55 1146.6,590.55 H1038.2 Z"/>
  </g>

  <!-- 3. Tavan -->
  <g id="roof">
    <path fill="#ffffff" stroke="#000000" stroke-width="2" d="M51.59,632.78 H345.78 L331.7,735.54 L324.66,746.8 V888.97 L331.7,903.04 L347.18,1004.4 H635.73"/>
  </g>

  <!-- 4. Sol Ön Çamurluk -->
  <g id="left_front_fender">
    <path fill="#ffffff" stroke="#000000" stroke-width="2" d="M364.57,547.33 C380.29,565.9 487.95,628.85 516.0,635.9 C545.5,643.31 648.5,643.58 648.5,643.58 L641.36,547.87 Z"/>
  </g>

  <!-- 5. Sağ Ön Çamurluk -->
  <g id="right_front_fender">
    <path fill="#ffffff" stroke="#000000" stroke-width="2" d="M618.57,847.14 C634.29,828.57 741.95,765.62 770.0,758.57 C799.5,751.16 902.5,751.43 902.5,751.43 L909.64,847.14 Z"/>
  </g>

  <!-- 6. Sol Ön Kapı -->
  <g id="left_front_door">
    <path fill="#ffffff" stroke="#000000" stroke-width="2" d="M644.7,641.63 L640.41,547.31 H847.58 C836.27,568.06 800.97,622.21 774.67,635.88 C760.38,645.88 691.82,640.21 644.7,641.63 Z"/>
  </g>

  <!-- 7. Sağ Ön Kapı -->
  <g id="right_front_door">
    <path fill="#ffffff" stroke="#000000" stroke-width="2" d="M898.7,752.84 L894.41,847.16 H1101.6 C1090.3,826.41 1055.0,772.26 1028.7,758.59 C1014.4,748.59 945.84,754.26 898.7,752.84 Z"/>
  </g>

  <!-- 8. Sol Arka Çeyrek Panel -->
  <g id="left_rear_quarter">
    <path fill="#ffffff" stroke="#000000" stroke-width="2" d="M811.71,634.47 C891.71,550.19 897.42,547.33 1013.12,545.9 C1013.12,545.9 936.02,593.04 910.31,604.47 C884.59,615.9 801.71,634.47 793.13,634.47 Z"/>
  </g>

  <!-- 9. Sağ Arka Çeyrek Panel -->
  <g id="right_rear_quarter">
    <path fill="#ffffff" stroke="#000000" stroke-width="2" d="M1065.7,760 C1145.7,844.29 1151.4,847.14 1267.1,848.57 C1267.1,848.57 1190.0,801.43 1164.3,790 C1138.6,778.57 1055.7,760 1047.1,760 Z"/>
  </g>

  <!-- 10. Ön Tampon (Izgara) -->
  <g id="front_bumper">
    <rect x="528.62" y="729.21" width="106.98" height="181.58" rx="31.19" ry="34.44" fill="#ffffff" stroke="#000000" stroke-width="2"/>
  </g>

  <!-- 11. Arka Tampon -->
  <g id="rear_bumper">
    <path fill="#ffffff" stroke="#000000" stroke-width="2" d="M1200.9,633.86 V707.05 H1268.5 V624 L1243.2,610 Z"/>
    <path fill="#ffffff" stroke="#000000" stroke-width="2" d="M1200.9,963.24 H1268.5 V1042.1 L1244.6,1056.1 L1200.9,1037.8 Z"/>
  </g>

  <!-- 12. Tekerlekler -->
  <g id="wheels" fill="#c8c8c8" stroke="#000000" stroke-width="2">
    <circle cx="122.12" cy="1277.53" r="76.01"/>
    <circle cx="122.12" cy="390.5" r="76.01"/>
    <circle cx="816.66" cy="390.5" r="76.01"/>
    <circle cx="816.66" cy="1277.53" r="76.01"/>
  </g>

  <!-- Metadata -->
  <metadata>
    <rdf:RDF xmlns:rdf="http://www.w3.org/1999/02/22-rdf-syntax-ns#" xmlns:cc="http://creativecommons.org/ns#" xmlns:dc="http://purl.org/dc/elements/1.1/">
      <cc:Work>
        <dc:title>Unfolded Car - Grouped for Repair Indication</dc:title>
        <dc:creator>Tobias Moon (original), adapted for part-based interaction</dc:creator>
        <dc:description>Each car body part is grouped in a separate <g id="part_name"> for easy selection and coloring in web/mobile apps.</dc:description>
      </cc:Work>
    </rdf:RDF>
  </metadata>
</svg>